<?xml version="1.0" encoding="utf-8"?>
<!-- Generator: Adobe Illustrator 21.1.0, SVG Export Plug-In . SVG Version: 6.00 Build 0)  -->
<svg version="1.1" id="Слой_1" xmlns="http://www.w3.org/2000/svg" xmlns:xlink="http://www.w3.org/1999/xlink" x="0px" y="0px"
	 viewBox="0 0 1356.1 231.7" style="enable-background:new 0 0 1356.1 231.7;" xml:space="preserve">
<style type="text/css">
	.st0{fill:#446CB7;}
	.st1{fill:#62B7FD;}
</style>
<title>logo-payspace</title>
<path class="st0" d="M343.2,64.4l-2.4-16.9C337,21.3,309.2,0,278.6,0h-44.4l9.1,64.4H343.2z M339.8,131.1c7.2-8.1,10.3-19,8.6-29.7
	L346.2,85h-99.9l8.8,61.8h46.5C317.2,146.8,331,141.1,339.8,131.1L339.8,131.1z M115.4,0l32.9,231.6h97.1L212.6,0H115.4z
	 M477.5,27.9h-42v156h23.8V125h15.3c18.7,0,33.7-4.2,44.3-12.4c11.1-8.7,16.8-21.1,16.8-36.9C535.6,53.7,525.5,27.9,477.5,27.9z
	 M503,96.1c-6,4.3-16.3,6.6-30.9,6.6h-12.8V50.5H476c12.7,0,21.8,2.1,27.3,6.5C508.6,61,511,67.1,511,76
	C511,85.7,508.4,92.3,503,96.1z M604.6,62.4c-13.1,0.1-26,3.2-37.8,8.9l-6,2.9l9.3,21.3l6.5-3.4c9.4-4.8,19-7.4,27.3-7.4
	c6.8,0,12,1.8,14.6,5.2c3.1,3.9,4.7,10,4.7,18.6v0.3l-13.5,0.3c-17.7,0.3-31.6,3.7-41.3,10.2c-10.7,7.1-16.1,17.1-16.1,29.7
	c0,11.3,3.7,20.5,10.9,27.1c7.2,6.4,16.9,9.8,29.1,9.8c8.8,0,16.6-1.6,23.1-5c3.3-1.8,6.4-3.9,9.3-6.3l1.3,9.4h20.3v-77.2
	c0-14.5-3.6-25.7-10.6-32.9C628.7,66.3,618.1,62.4,604.6,62.4z M623,133.6c0,9.7-2.6,16.9-7.8,22.1s-12.5,7.7-22.2,7.7
	c-5.7,0-9.9-1.3-12.7-3.7c-2.6-2.3-3.9-5.6-3.9-10.3c0-6,2-9.8,6.3-12.6c3.7-2.3,11.5-5.2,28.6-6l11.5-0.5L623,133.6z M719.5,127.6
	c-2.8,7.3-5,13.7-7.2,19.4c-2-5.5-4.2-11.8-7-18.9l-24.3-63.7h-24.9L699.6,177c-1,2.6-2.4,6.3-4.4,11.3c-2.6,6.8-4.7,11.6-6.5,14.4
	c-1.1,2-2.8,3.7-4.7,5c-3.1,1.9-8.5,1.9-15.6,0l-8.8-2.4v22.4l4.9,1.4c4.9,1.5,9.9,2.3,15,2.3c5.3,0.1,10.5-1.1,15.3-3.4
	c4.6-2.3,8.5-5.7,11.5-9.8c2.9-4,6.5-11.1,10.6-21.9l51.5-131.8h-24.7L719.5,127.6z"/>
<path class="st1" d="M866.2,105.7c-6.2-3.9-15-7.9-26.7-11.8c-10.1-3.6-17.3-6.6-21.3-9c-2.8-1.6-5.3-3.9-7.2-6.6
	c-1.3-2.3-2-5.5-2-9.5c0-6.3,2.1-10.8,6.8-14.5c10.6-8.2,31.3-7.7,52.6,1l6.3,2.6l9-21.1l-6.3-2.7c-12.9-5.4-26.7-8.1-40.7-8.1
	c-14.8-0.1-27.2,3.8-36.8,11.6c-10.1,8.1-15.1,18.5-15.1,31.3c0,11.4,3.4,20.8,10.3,27.9c6.3,6.6,17.3,12.6,33.2,17.9
	c9.4,3.2,16.8,6.1,21.6,8.9c4.1,2.3,7.2,4.8,8.8,7.4c4.5,8.6,2.2,19.2-5.4,25.3c-5.7,4.4-13.7,6.6-23.8,6.6c-15,0-27.5-1.9-36.8-6
	l-9.6-4v24.8l4.2,1.8c10.3,4.2,24.4,6.3,43,6.3c16.1,0,29.3-4,39.4-11.9c10.4-8.2,15.8-19.5,15.8-33.6c0.1-7-1.5-13.8-4.7-20
	C877.2,114.3,872.2,109.4,866.2,105.7z"/>
<path class="st1" d="M1001,79.1c-9.1-11.1-22.1-16.8-38.6-16.8c-12.4,0-22.6,3.1-30.6,9l-0.8-6.9h-21.3v167.3h23.6v-53.9
	c7.8,5.3,17.6,8.1,29.1,8.1c15.8,0,28.6-5.6,37.9-16.8c9-10.8,13.5-25.8,13.5-44.8C1013.8,104.9,1009.5,89.6,1001,79.1z
	 M981.8,154.2c-4.6,6.3-11.1,9.4-19.8,9.4c-10.4,0-17.7-2.6-22-8.1c-4.6-5.8-7-16.3-7-31.1v-3.1c0-13.6,2.4-23.2,7.2-28.7
	c4.6-5.2,11.7-7.7,22.1-7.7c12.7-0.2,27.2,4.3,27.2,39.7C989.4,137.5,986.8,147.5,981.8,154.2L981.8,154.2z"/>
<path class="st1" d="M1114.4,73.7c-7-7.4-17.6-11.3-31.1-11.3c-13.1,0.1-26,3.2-37.8,8.9l-6,2.9l9.3,21.3l6.7-3.4
	c9.3-4.8,19-7.4,27.3-7.4c6.8,0,12,1.8,14.6,5.2c3.1,3.9,4.7,10,4.7,18.6v0.3l-13.5,0.3c-17.7,0.3-31.6,3.7-41.3,10.2
	c-10.6,7.1-16.1,17.1-16.1,29.7c0,11.3,3.7,20.5,10.9,27.1c7.2,6.4,16.9,9.8,29.1,9.8c8.8,0,16.6-1.6,23.1-5
	c3.3-1.7,6.4-3.8,9.3-6.3l1.3,9.4h20v-77.3C1125,92.1,1121.4,81,1114.4,73.7z M1101.7,133.6c0,9.7-2.6,16.9-7.8,22.1
	s-12.5,7.7-22.1,7.7c-5.7,0-9.9-1.3-12.7-3.7c-2.6-2.3-3.9-5.6-3.9-10.3c0-6,2-9.8,6.3-12.6c3.7-2.3,11.6-5.2,28.6-6l11.6-0.5V133.6
	z"/>
<path class="st1" d="M1228.5,88.9l6.7,2.3l6.7-21.5l-6-2.3c-9.3-3.4-19.1-5.2-29-5.2c-17.6,0-31.6,5.6-42,16.9
	c-10.1,11-15.3,26.3-15.3,45.5c0,18.7,4.9,33.7,14.7,44.5c9.9,11,23.8,16.6,41,16.6c12,0,22.1-1.9,29.8-5.6l3.9-1.9v-23.5l-9.6,4
	c-7.7,3.1-15.9,4.7-24.3,4.7c-10.1,0-17.6-3.2-22.9-9.7c-5.7-6.8-8.5-16.6-8.5-29.2c0-13.4,2.9-23.6,8.5-30.2
	C1191.4,83.4,1206.5,81.6,1228.5,88.9z"/>
<path class="st1" d="M1356.1,117.6c0-16.4-4.2-29.8-12.5-39.8c-8.6-10.3-20.3-15.5-35-15.5c-16.3,0-29.5,6-39.2,17.7
	c-9.4,11.3-14.2,26.5-14.2,44.8c0,18.7,5,33.7,14.8,44.4c9.9,11,23.9,16.4,41.3,16.4c6.1,0,12.1-0.4,18.1-1.4
	c6.3-1.2,12.4-3.1,18.2-5.8l4.1-1.8v-23.4l-9.4,3.7c-5.3,2.2-10.7,3.9-16.3,5.2c-4.9,0.8-9.8,1.2-14.8,1.1
	c-10.4,0-18.2-2.9-23.6-9.2c-4.6-5.2-7.3-12.6-8.1-21.9h76.5L1356.1,117.6z M1280.9,110c1.5-7.4,4.2-13.4,8.1-17.6
	c4.9-5.3,11.4-7.9,19.7-7.9c7.3,0,12.8,2.6,16.8,7.7c3.4,4.4,5.5,10.3,6.3,17.8L1280.9,110z"/>
<polygon class="st1" points="105.8,85 6.1,85 14.7,146.8 114.6,146.8 "/>
<path class="st1" d="M93.8,0H47.4C31.8,0,17.9,5.6,9.1,15.6C2,23.8-1.2,34.6,0.3,45.3l2.8,19h99.8L93.8,0z"/>
<path class="st1" d="M357.7,167.3h-99.9l9.1,64.4h46.5c15.6,0,29.5-5.6,38.2-15.6c7.1-8.1,10.3-19,8.8-29.7L357.7,167.3z"/>
<path class="st1" d="M17.6,167.3l2.4,16.9c3.7,26.1,31.6,47.4,62.2,47.4h44.4l-9.1-64.4H17.6z"/>
</svg>
