<svg width="200" height="54" viewBox="0 0 200 54" fill="none" xmlns="http://www.w3.org/2000/svg">
<g clip-path="url(#clip0_2860_4882)">
<path d="M140.624 5.76903e-05C135.611 5.76903e-05 130.267 3.88936 127.534 12.356V5.08863C127.534 2.28269 125.25 0 122.442 0C119.634 0 117.35 2.28269 117.35 5.08863L117.35 48.9114C117.35 51.7173 119.634 54 122.442 54C125.25 54 127.534 51.7173 127.534 48.9114V28.3281C127.534 18.4282 133.129 12.5562 141.719 10.6317C144.465 10.0166 146.17 7.94597 146.17 5.22749C146.17 2.1496 143.89 5.76903e-05 140.624 5.76903e-05Z" fill="#213B55"/>
<path d="M172.98 0C158.082 0 145.961 12.1121 145.961 26.9999C145.961 41.8877 158.082 54 172.98 54C187.879 54 199.999 41.8879 199.999 26.9999C199.999 12.112 187.879 0 172.98 0ZM172.98 43.8266C163.695 43.8266 156.141 36.2781 156.141 27C156.141 17.7218 163.695 10.1734 172.98 10.1734C182.265 10.1734 189.819 17.7218 189.819 27C189.819 36.2782 182.265 43.8266 172.98 43.8266Z" fill="#213B55"/>
<path d="M172.98 20.2749C169.269 20.2749 166.25 23.2916 166.25 27C166.25 30.7083 169.269 33.725 172.98 33.725C176.691 33.725 179.71 30.7083 179.71 27C179.71 23.2916 176.691 20.2749 172.98 20.2749Z" fill="#213B55"/>
<path d="M82.5187 0C67.614 0 55.4883 12.1121 55.4883 26.9999C55.4883 42.0224 67.2556 53.9998 83.532 53.9998C91.4764 53.9998 98.0346 51.5862 103.581 46.621C104.18 46.0218 105.202 44.7243 105.202 42.8702C105.202 40.0638 103.112 37.9474 100.341 37.9474C98.9112 37.9474 98.1042 38.3571 97.1935 39.065C93.188 42.3615 88.787 43.966 83.7447 43.966C75.1445 43.966 68.1176 38.9102 66.1935 31.2893L103.537 31.2894C106.98 31.2762 109.477 28.5019 109.477 24.6831C109.477 15.4485 100.417 0 82.5187 0ZM66.1785 22.6958C67.9867 15.2432 74.4386 9.92578 82.5187 9.92578C90.482 9.92578 96.9919 14.6791 98.8432 22.6958H66.1785Z" fill="#213B55"/>
<path d="M54.038 5.02609C54.038 2.24473 51.7819 0 49.0086 0C47.6651 0 46.4021 0.522789 45.4521 1.47214L27.0189 19.8916L8.58588 1.47214C7.63591 0.522847 6.37286 0 5.02939 0C2.25603 0 0 2.24473 0 5.02609C0 6.3686 0.523047 7.63075 1.47302 8.57993L19.906 26.9993L1.47302 45.4186C0.523162 46.3679 0 47.63 0 48.9725C0 51.7528 2.25003 53.9986 5.0295 53.9986C6.37286 53.9986 7.63602 53.4758 8.58599 52.5265L27.0189 34.1071L45.4519 52.5265C46.4019 53.4758 47.665 53.9986 49.0084 53.9986C51.7879 53.9986 54.0379 51.7528 54.0379 48.9725C54.0379 47.63 53.5147 46.3679 52.5649 45.4186L34.1319 26.9993L52.5649 8.57987C53.5148 7.63069 54.038 6.36866 54.038 5.02609Z" fill="#213B55"/>
</g>
<defs>
<clipPath id="clip0_2860_4882">
<rect width="200" height="54" fill="white"/>
</clipPath>
</defs>
</svg>
